<mxfile host="app.diagrams.net" modified="2021-09-15T03:05:40.063Z" agent="5.0 (Windows)" etag="D4bWjf99KjbtbXl2afA6" version="15.2.7" type="github">
  <diagram id="DOrdf2GdDWUqK32FPt1q" name="Page-1">
    <mxGraphModel dx="868" dy="412" grid="1" gridSize="10" guides="1" tooltips="1" connect="1" arrows="1" fold="1" page="1" pageScale="1" pageWidth="827" pageHeight="1169" math="0" shadow="0">
      <root>
        <mxCell id="0" />
        <mxCell id="1" parent="0" />
        <mxCell id="yJXbLsx19bje6TVqqQ3_-3" style="edgeStyle=orthogonalEdgeStyle;rounded=0;orthogonalLoop=1;jettySize=auto;html=1;exitX=0.15;exitY=0.95;exitDx=0;exitDy=0;entryX=0.5;entryY=0;entryDx=0;entryDy=0;exitPerimeter=0;" edge="1" parent="1" source="yJXbLsx19bje6TVqqQ3_-1" target="yJXbLsx19bje6TVqqQ3_-2">
          <mxGeometry relative="1" as="geometry" />
        </mxCell>
        <mxCell id="yJXbLsx19bje6TVqqQ3_-6" style="edgeStyle=orthogonalEdgeStyle;rounded=0;orthogonalLoop=1;jettySize=auto;html=1;exitX=0.5;exitY=1;exitDx=0;exitDy=0;entryX=0.5;entryY=0;entryDx=0;entryDy=0;" edge="1" parent="1" source="yJXbLsx19bje6TVqqQ3_-1" target="yJXbLsx19bje6TVqqQ3_-4">
          <mxGeometry relative="1" as="geometry" />
        </mxCell>
        <mxCell id="yJXbLsx19bje6TVqqQ3_-7" style="edgeStyle=orthogonalEdgeStyle;rounded=0;orthogonalLoop=1;jettySize=auto;html=1;exitX=0.85;exitY=0.95;exitDx=0;exitDy=0;exitPerimeter=0;" edge="1" parent="1" source="yJXbLsx19bje6TVqqQ3_-1" target="yJXbLsx19bje6TVqqQ3_-5">
          <mxGeometry relative="1" as="geometry" />
        </mxCell>
        <mxCell id="yJXbLsx19bje6TVqqQ3_-1" value="NSDS DATA" style="shape=datastore;whiteSpace=wrap;html=1;" vertex="1" parent="1">
          <mxGeometry x="354" y="90" width="60" height="60" as="geometry" />
        </mxCell>
        <mxCell id="yJXbLsx19bje6TVqqQ3_-12" style="edgeStyle=orthogonalEdgeStyle;rounded=0;orthogonalLoop=1;jettySize=auto;html=1;exitX=0.5;exitY=1;exitDx=0;exitDy=0;entryX=0.5;entryY=0;entryDx=0;entryDy=0;" edge="1" parent="1" source="yJXbLsx19bje6TVqqQ3_-2" target="yJXbLsx19bje6TVqqQ3_-8">
          <mxGeometry relative="1" as="geometry" />
        </mxCell>
        <mxCell id="yJXbLsx19bje6TVqqQ3_-2" value="CBU 4W" style="shape=datastore;whiteSpace=wrap;html=1;" vertex="1" parent="1">
          <mxGeometry x="260" y="210" width="60" height="60" as="geometry" />
        </mxCell>
        <mxCell id="yJXbLsx19bje6TVqqQ3_-17" style="edgeStyle=orthogonalEdgeStyle;rounded=0;orthogonalLoop=1;jettySize=auto;html=1;exitX=0.5;exitY=1;exitDx=0;exitDy=0;" edge="1" parent="1" source="yJXbLsx19bje6TVqqQ3_-4" target="yJXbLsx19bje6TVqqQ3_-13">
          <mxGeometry relative="1" as="geometry" />
        </mxCell>
        <mxCell id="yJXbLsx19bje6TVqqQ3_-4" value="CBU 2W" style="shape=datastore;whiteSpace=wrap;html=1;" vertex="1" parent="1">
          <mxGeometry x="354" y="210" width="60" height="60" as="geometry" />
        </mxCell>
        <mxCell id="yJXbLsx19bje6TVqqQ3_-22" style="edgeStyle=orthogonalEdgeStyle;rounded=0;orthogonalLoop=1;jettySize=auto;html=1;exitX=0.5;exitY=1;exitDx=0;exitDy=0;" edge="1" parent="1" source="yJXbLsx19bje6TVqqQ3_-5" target="yJXbLsx19bje6TVqqQ3_-18">
          <mxGeometry relative="1" as="geometry" />
        </mxCell>
        <mxCell id="yJXbLsx19bje6TVqqQ3_-5" value="OBM" style="shape=datastore;whiteSpace=wrap;html=1;" vertex="1" parent="1">
          <mxGeometry x="450" y="210" width="60" height="60" as="geometry" />
        </mxCell>
        <mxCell id="yJXbLsx19bje6TVqqQ3_-8" value="CBU 4W TABLE" style="swimlane;fontStyle=0;childLayout=stackLayout;horizontal=1;startSize=26;fillColor=none;horizontalStack=0;resizeParent=1;resizeParentMax=0;resizeLast=0;collapsible=1;marginBottom=0;" vertex="1" parent="1">
          <mxGeometry x="150" y="350" width="140" height="104" as="geometry" />
        </mxCell>
        <mxCell id="yJXbLsx19bje6TVqqQ3_-9" value="Item 1" style="text;strokeColor=none;fillColor=none;align=left;verticalAlign=top;spacingLeft=4;spacingRight=4;overflow=hidden;rotatable=0;points=[[0,0.5],[1,0.5]];portConstraint=eastwest;" vertex="1" parent="yJXbLsx19bje6TVqqQ3_-8">
          <mxGeometry y="26" width="140" height="26" as="geometry" />
        </mxCell>
        <mxCell id="yJXbLsx19bje6TVqqQ3_-10" value="Item 2" style="text;strokeColor=none;fillColor=none;align=left;verticalAlign=top;spacingLeft=4;spacingRight=4;overflow=hidden;rotatable=0;points=[[0,0.5],[1,0.5]];portConstraint=eastwest;" vertex="1" parent="yJXbLsx19bje6TVqqQ3_-8">
          <mxGeometry y="52" width="140" height="26" as="geometry" />
        </mxCell>
        <mxCell id="yJXbLsx19bje6TVqqQ3_-11" value="Item 3" style="text;strokeColor=none;fillColor=none;align=left;verticalAlign=top;spacingLeft=4;spacingRight=4;overflow=hidden;rotatable=0;points=[[0,0.5],[1,0.5]];portConstraint=eastwest;" vertex="1" parent="yJXbLsx19bje6TVqqQ3_-8">
          <mxGeometry y="78" width="140" height="26" as="geometry" />
        </mxCell>
        <mxCell id="yJXbLsx19bje6TVqqQ3_-13" value="CBU 2W TABLE" style="swimlane;fontStyle=0;childLayout=stackLayout;horizontal=1;startSize=26;fillColor=none;horizontalStack=0;resizeParent=1;resizeParentMax=0;resizeLast=0;collapsible=1;marginBottom=0;" vertex="1" parent="1">
          <mxGeometry x="314" y="350" width="140" height="104" as="geometry" />
        </mxCell>
        <mxCell id="yJXbLsx19bje6TVqqQ3_-14" value="Item 1" style="text;strokeColor=none;fillColor=none;align=left;verticalAlign=top;spacingLeft=4;spacingRight=4;overflow=hidden;rotatable=0;points=[[0,0.5],[1,0.5]];portConstraint=eastwest;" vertex="1" parent="yJXbLsx19bje6TVqqQ3_-13">
          <mxGeometry y="26" width="140" height="26" as="geometry" />
        </mxCell>
        <mxCell id="yJXbLsx19bje6TVqqQ3_-15" value="Item 2" style="text;strokeColor=none;fillColor=none;align=left;verticalAlign=top;spacingLeft=4;spacingRight=4;overflow=hidden;rotatable=0;points=[[0,0.5],[1,0.5]];portConstraint=eastwest;" vertex="1" parent="yJXbLsx19bje6TVqqQ3_-13">
          <mxGeometry y="52" width="140" height="26" as="geometry" />
        </mxCell>
        <mxCell id="yJXbLsx19bje6TVqqQ3_-16" value="Item 3" style="text;strokeColor=none;fillColor=none;align=left;verticalAlign=top;spacingLeft=4;spacingRight=4;overflow=hidden;rotatable=0;points=[[0,0.5],[1,0.5]];portConstraint=eastwest;" vertex="1" parent="yJXbLsx19bje6TVqqQ3_-13">
          <mxGeometry y="78" width="140" height="26" as="geometry" />
        </mxCell>
        <mxCell id="yJXbLsx19bje6TVqqQ3_-18" value="OBM TABLE" style="swimlane;fontStyle=0;childLayout=stackLayout;horizontal=1;startSize=26;fillColor=none;horizontalStack=0;resizeParent=1;resizeParentMax=0;resizeLast=0;collapsible=1;marginBottom=0;" vertex="1" parent="1">
          <mxGeometry x="480" y="350" width="140" height="104" as="geometry" />
        </mxCell>
        <mxCell id="yJXbLsx19bje6TVqqQ3_-19" value="Item 1" style="text;strokeColor=none;fillColor=none;align=left;verticalAlign=top;spacingLeft=4;spacingRight=4;overflow=hidden;rotatable=0;points=[[0,0.5],[1,0.5]];portConstraint=eastwest;" vertex="1" parent="yJXbLsx19bje6TVqqQ3_-18">
          <mxGeometry y="26" width="140" height="26" as="geometry" />
        </mxCell>
        <mxCell id="yJXbLsx19bje6TVqqQ3_-20" value="Item 2" style="text;strokeColor=none;fillColor=none;align=left;verticalAlign=top;spacingLeft=4;spacingRight=4;overflow=hidden;rotatable=0;points=[[0,0.5],[1,0.5]];portConstraint=eastwest;" vertex="1" parent="yJXbLsx19bje6TVqqQ3_-18">
          <mxGeometry y="52" width="140" height="26" as="geometry" />
        </mxCell>
        <mxCell id="yJXbLsx19bje6TVqqQ3_-21" value="Item 3" style="text;strokeColor=none;fillColor=none;align=left;verticalAlign=top;spacingLeft=4;spacingRight=4;overflow=hidden;rotatable=0;points=[[0,0.5],[1,0.5]];portConstraint=eastwest;" vertex="1" parent="yJXbLsx19bje6TVqqQ3_-18">
          <mxGeometry y="78" width="140" height="26" as="geometry" />
        </mxCell>
        <mxCell id="yJXbLsx19bje6TVqqQ3_-24" style="edgeStyle=orthogonalEdgeStyle;rounded=0;orthogonalLoop=1;jettySize=auto;html=1;entryX=0;entryY=0.7;entryDx=0;entryDy=0;" edge="1" parent="1" source="yJXbLsx19bje6TVqqQ3_-23" target="yJXbLsx19bje6TVqqQ3_-1">
          <mxGeometry relative="1" as="geometry" />
        </mxCell>
        <mxCell id="yJXbLsx19bje6TVqqQ3_-23" value="Sales" style="shape=umlActor;verticalLabelPosition=bottom;verticalAlign=top;html=1;" vertex="1" parent="1">
          <mxGeometry x="50" y="200" width="30" height="60" as="geometry" />
        </mxCell>
        <mxCell id="yJXbLsx19bje6TVqqQ3_-27" value="Upload CINV Data" style="rounded=1;whiteSpace=wrap;html=1;arcSize=40;fontColor=#000000;fillColor=#ffffc0;strokeColor=#ff0000;" vertex="1" parent="1">
          <mxGeometry x="5" y="100" width="120" height="40" as="geometry" />
        </mxCell>
        <mxCell id="yJXbLsx19bje6TVqqQ3_-28" value="" style="edgeStyle=orthogonalEdgeStyle;html=1;verticalAlign=bottom;endArrow=open;endSize=8;strokeColor=#ff0000;" edge="1" source="yJXbLsx19bje6TVqqQ3_-27" parent="1">
          <mxGeometry relative="1" as="geometry">
            <mxPoint x="65" y="200" as="targetPoint" />
          </mxGeometry>
        </mxCell>
      </root>
    </mxGraphModel>
  </diagram>
</mxfile>
